<svg width="19" height="19" viewBox="0 0 19 19" fill="none" xmlns="http://www.w3.org/2000/svg">
<path d="M12.375 9.375C12.375 9.96834 12.1991 10.5484 11.8694 11.0417C11.5398 11.5351 11.0712 11.9196 10.5231 12.1466C9.97487 12.3737 9.37167 12.4331 8.78973 12.3174C8.20779 12.2016 7.67324 11.9159 7.25368 11.4963C6.83412 11.0768 6.5484 10.5422 6.43264 9.96027C6.31689 9.37833 6.3763 8.77513 6.60336 8.22695C6.83042 7.67877 7.21494 7.21024 7.70829 6.88059C8.20164 6.55095 8.78166 6.375 9.375 6.375C10.1699 6.37747 10.9315 6.69434 11.4936 7.25641C12.0557 7.81849 12.3725 8.58011 12.375 9.375ZM18.75 5.25V13.5C18.75 14.8924 18.1969 16.2277 17.2123 17.2123C16.2277 18.1969 14.8924 18.75 13.5 18.75H5.25C3.85761 18.75 2.52226 18.1969 1.53769 17.2123C0.553123 16.2277 0 14.8924 0 13.5V5.25C0 3.85761 0.553123 2.52226 1.53769 1.53769C2.52226 0.553123 3.85761 0 5.25 0H13.5C14.8924 0 16.2277 0.553123 17.2123 1.53769C18.1969 2.52226 18.75 3.85761 18.75 5.25ZM13.875 9.375C13.875 8.48498 13.6111 7.61495 13.1166 6.87493C12.6221 6.13491 11.9193 5.55814 11.0971 5.21754C10.2748 4.87695 9.37001 4.78783 8.49709 4.96147C7.62418 5.1351 6.82236 5.56368 6.19302 6.19302C5.56368 6.82236 5.1351 7.62418 4.96147 8.49709C4.78783 9.37001 4.87695 10.2748 5.21754 11.0971C5.55814 11.9193 6.13491 12.6221 6.87493 13.1166C7.61495 13.6111 8.48498 13.875 9.375 13.875C10.5685 13.875 11.7131 13.4009 12.557 12.557C13.4009 11.7131 13.875 10.5685 13.875 9.375ZM15.375 4.5C15.375 4.2775 15.309 4.05999 15.1854 3.87498C15.0618 3.68998 14.8861 3.54578 14.6805 3.46064C14.475 3.37549 14.2488 3.35321 14.0305 3.39662C13.8123 3.44002 13.6118 3.54717 13.4545 3.7045C13.2972 3.86184 13.19 4.06229 13.1466 4.28052C13.1032 4.49875 13.1255 4.72495 13.2106 4.93052C13.2958 5.13609 13.44 5.31179 13.625 5.4354C13.81 5.55902 14.0275 5.625 14.25 5.625C14.5484 5.625 14.8345 5.50647 15.0455 5.2955C15.2565 5.08452 15.375 4.79837 15.375 4.5Z" fill="#F2BE22"/>
</svg>
